<mxfile host="app.diagrams.net" modified="2020-09-15T14:55:22.808Z" agent="5.0 (Windows)" etag="GnJfClxG0_W_8N9iqmJr" version="13.7.1" type="github">
  <diagram id="PSDG8D5M-7Il6oYURAT0" name="Page-1">
    <mxGraphModel dx="1102" dy="611" grid="1" gridSize="10" guides="1" tooltips="1" connect="1" arrows="1" fold="1" page="1" pageScale="1" pageWidth="827" pageHeight="1169" math="0" shadow="0">
      <root>
        <mxCell id="0" />
        <mxCell id="1" parent="0" />
        <mxCell id="jYn-Se3eS3zpU_Swtfgl-6" style="edgeStyle=orthogonalEdgeStyle;rounded=0;orthogonalLoop=1;jettySize=auto;html=1;exitX=0.5;exitY=0.5;exitDx=0;exitDy=0;exitPerimeter=0;entryX=0;entryY=0.5;entryDx=0;entryDy=0;" edge="1" parent="1" source="jYn-Se3eS3zpU_Swtfgl-1" target="jYn-Se3eS3zpU_Swtfgl-3">
          <mxGeometry relative="1" as="geometry" />
        </mxCell>
        <mxCell id="jYn-Se3eS3zpU_Swtfgl-1" value="Actor" style="shape=umlActor;verticalLabelPosition=bottom;verticalAlign=top;html=1;outlineConnect=0;" vertex="1" parent="1">
          <mxGeometry x="40" y="37.5" width="30" height="60" as="geometry" />
        </mxCell>
        <mxCell id="jYn-Se3eS3zpU_Swtfgl-3" value="&lt;div&gt;Синхронизация 1С и Git&lt;/div&gt;" style="ellipse;whiteSpace=wrap;html=1;" vertex="1" parent="1">
          <mxGeometry x="160" y="30" width="170" height="75" as="geometry" />
        </mxCell>
      </root>
    </mxGraphModel>
  </diagram>
</mxfile>
